<?xml version="1.0" standalone="no"?>
<!DOCTYPE svg PUBLIC "-//W3C//DTD SVG 20010904//EN"
 "http://www.w3.org/TR/2001/REC-SVG-20010904/DTD/svg10.dtd">
<svg version="1.0" xmlns="http://www.w3.org/2000/svg"
 width="593.000000pt" height="593.000000pt" viewBox="0 0 593.000000 593.000000"
 preserveAspectRatio="xMidYMid meet">
<metadata>
Created by potrace 1.11, written by Peter Selinger 2001-2013
</metadata>
<g transform="translate(0.000000,593.000000) scale(0.100000,-0.100000)"
fill="#000000" stroke="none">
<path d="M3138 5805 c-2 -1 -30 -5 -63 -9 -109 -11 -149 -17 -210 -32 -33 -8
-71 -17 -85 -20 -60 -12 -215 -71 -325 -124 -247 -119 -452 -280 -636 -500
-58 -69 -166 -229 -199 -295 -14 -28 -28 -51 -32 -53 -5 -2 -8 -12 -8 -22 0
-10 -4 -21 -8 -24 -17 -10 -111 -273 -126 -352 -2 -11 -11 -53 -19 -94 -22
-107 -28 -161 -32 -276 -3 -87 -1 -105 17 -132 35 -56 120 -64 165 -15 28 30
31 41 37 178 3 61 8 124 11 140 7 43 18 98 21 110 105 457 378 834 782 1078
138 84 350 167 492 193 14 2 48 9 75 14 87 16 151 21 272 22 189 1 346 -24
524 -83 303 -100 581 -294 772 -539 112 -143 153 -207 205 -320 76 -164 106
-260 147 -465 3 -17 8 -82 11 -145 3 -63 10 -129 15 -147 27 -86 160 -92 194
-9 17 41 10 257 -10 336 -2 8 -7 35 -10 60 -6 42 -15 79 -50 205 -48 174 -167
404 -299 580 -56 74 -219 245 -293 307 -48 41 -181 138 -188 138 -4 0 -21 11
-38 24 -53 39 -275 142 -387 179 -101 34 -251 68 -355 82 -49 7 -361 15 -367
10z"/>
<path d="M3207 5334 c-1 -1 -31 -4 -67 -8 -226 -22 -424 -91 -611 -211 -71
-46 -88 -59 -158 -120 -135 -118 -248 -264 -325 -420 -90 -183 -133 -343 -142
-530 -6 -127 2 -151 57 -178 31 -15 41 -16 74 -5 56 19 74 50 80 143 15 209
44 317 132 490 87 170 242 340 408 446 85 54 258 128 339 143 6 2 38 9 71 16
64 14 290 19 365 8 232 -35 459 -144 628 -302 93 -87 193 -221 246 -328 77
-158 109 -281 122 -468 5 -87 19 -121 53 -140 79 -42 163 12 163 103 -2 449
-235 877 -617 1134 -171 115 -406 199 -610 218 -63 6 -204 12 -208 9z"/>
<path d="M3188 4745 c-1 -1 -26 -5 -53 -9 -146 -17 -324 -118 -431 -244 -59
-69 -120 -187 -145 -275 -21 -78 -22 -101 -23 -457 -1 -206 2 -404 7 -440 34
-271 216 -462 504 -529 l51 -13 -1 -66 -2 -67 -495 0 c-346 -1 -501 -4 -515
-12 -34 -19 -50 -43 -135 -208 -46 -88 -93 -178 -106 -200 l-22 -40 -171 -2
c-124 -2 -179 -7 -199 -17 -26 -13 -79 -99 -203 -331 -23 -44 -50 -93 -59
-110 l-17 -30 -239 -5 c-258 -5 -277 -9 -305 -62 -28 -53 -15 -85 162 -399 94
-167 185 -329 202 -359 16 -30 77 -138 134 -238 56 -101 103 -185 103 -186 0
-2 -26 1 -58 5 -145 22 -274 105 -407 263 -59 70 -123 79 -186 27 -31 -26 -34
-34 -34 -83 0 -48 4 -60 37 -99 144 -173 302 -283 478 -330 91 -25 271 -20
355 10 97 34 243 121 303 179 55 54 54 54 96 16 215 -197 462 -260 698 -177
90 31 221 112 294 181 l41 39 44 -39 c122 -106 279 -184 409 -204 207 -31 400
37 595 209 l39 35 41 -37 c58 -53 155 -117 238 -157 226 -106 454 -90 654 47
119 81 282 282 290 356 9 88 -86 154 -165 116 -18 -9 -53 -45 -79 -82 -90
-128 -221 -235 -313 -257 -42 -10 -147 -12 -161 -4 -9 6 -10 12 -2 22 6 7 26
42 45 78 20 36 80 144 135 240 55 96 113 198 128 225 15 28 94 167 175 310 81
143 194 341 250 440 110 194 122 233 86 287 -32 49 -56 53 -288 53 l-215 -1
-30 56 c-75 138 -227 408 -244 432 -11 15 -30 30 -42 34 -12 4 -256 8 -542 9
l-520 0 0 65 0 64 85 17 c275 54 468 242 536 525 4 16 8 198 9 404 3 403 -2
455 -50 573 -92 229 -285 388 -536 443 -28 6 -225 14 -231 9z"/>
</g>
</svg>
